<svg id="Layer_1" data-name="Layer 1" xmlns="http://www.w3.org/2000/svg" viewBox="0 0 22.29 16.93"><defs><style>.cls-1{fill:#fff;}.cls-2{fill:#bfbfbf;}</style></defs><title>Checkmark_Outlined</title><path class="cls-1" d="M20.29,5.5a0.22,0.22,0,0,0-.16-0.07h0A0.22,0.22,0,0,0,20,5.5L10,15.43a1.1,1.1,0,0,1-.79.33h0a1.1,1.1,0,0,1-.79-0.33L4.06,11a0.21,0.21,0,0,0-.15-0.06h0a0.22,0.22,0,0,0-.16.06l-2,1.75a0.23,0.23,0,0,0,0,.14,0.26,0.26,0,0,0,.07.17l5.35,5.58,1.89,1.91a0.22,0.22,0,0,0,.16.06h0a0.22,0.22,0,0,0,.16-0.07L22.19,7.74a0.23,0.23,0,0,0,0-.32Z" transform="translate(-0.86 -4.55)" fill="#ffffff"/><path class="cls-2" d="M22.82,6.79L20.92,4.88a1.11,1.11,0,0,0-.79-0.33h0a1.1,1.1,0,0,0-.79.33l-10,9.93a0.22,0.22,0,0,1-.16.07,0.22,0.22,0,0,1-.15-0.07L4.69,10.35A1.1,1.1,0,0,0,3.91,10h0a1.1,1.1,0,0,0-.77.31l-2,1.76a1.12,1.12,0,0,0-.32.78,1.14,1.14,0,0,0,.32.79l4.41,4.63,2.84,2.86a1.11,1.11,0,0,0,.79.33h0A1.11,1.11,0,0,0,10,21.15L22.82,8.37A1.12,1.12,0,0,0,22.82,6.79Zm-0.63,1L9.38,20.52a0.22,0.22,0,0,1-.16.07h0a0.22,0.22,0,0,1-.16-0.06L7.17,18.62,1.82,13a0.26,0.26,0,0,1-.07-0.17,0.23,0.23,0,0,1,0-.14l2-1.75a0.22,0.22,0,0,1,.16-0.06h0a0.21,0.21,0,0,1,.15.06l4.37,4.45a1.1,1.1,0,0,0,.79.33h0A1.1,1.1,0,0,0,10,15.43L20,5.5a0.22,0.22,0,0,1,.15-0.06h0a0.22,0.22,0,0,1,.16.07l1.89,1.91A0.23,0.23,0,0,1,22.19,7.74Z" transform="translate(-0.86 -4.55)" fill="#bfbfbf" /></svg>
